/* XPM */
static char *sud[] = {
/* columns rows colors chars-per-pixel */
"64 64 45 1 ",
"  c #363636",
". c #3D3C3C",
"X c #403F3F",
"o c #41413F",
"O c #413F41",
"+ c #444444",
"@ c #484746",
"# c #4A4946",
"$ c #4B4748",
"% c #4D4C4B",
"& c #504F4D",
"* c #52514E",
"= c #514F50",
"- c #545453",
"; c #585655",
": c #5B5956",
"> c #595758",
", c #5C5C5B",
"< c #615B56",
"1 c #625E5C",
"2 c #63615E",
"3 c #68625F",
"4 c #605F60",
"5 c #646463",
"6 c #6B6663",
"7 c #676864",
"8 c #6C6966",
"9 c #696768",
"0 c #6C6B6B",
"q c #716D6B",
"w c #72716F",
"e c #716F70",
"r c #6F7070",
"t c #737373",
"y c #797574",
"u c #7B7977",
"i c #787778",
"p c #7B7B7B",
"a c #827D7D",
"s c #807F80",
"d c #838383",
"f c #8C8C8C",
"g c #939393",
"h c #9A9A9A",
"j c #A1A1A1",
/* pixels */
"668666666a3631q800050000500irtghhhhhjg5=tiipippu;+>5,,,5,,,4>%99",
"6888666633333<eqr00050000r0sptfhhhhjhs->ipiipppp,%-55,5,,5,5,%05",
"66666666666a5-8err0r000rrrrsp0dghhjhft=5iiiippaa5%%,,5555555-=50",
"3363636366666-0trrr00rrrrrtii0dffhhhgr%0siiipada5%%>,,,,>,,,=;75",
"226646331146,$8itttrrrrrrriir5fgggghf,+>5550wrpt5++>,,,,,,,,&:51",
"11113113111>%O,0ttttrrr0rrr5,=rfddpp0--500505,5,=X.=,,,,,,,>&,11",
"11411113<>>%O.@>50itt05>>>==--,,,,50,>tptiiisit05%.%,,,,,,,>=<64",
";;<<<=&O$&%%%%>90,055=&;555rssp0--rpt,,5500000ttt,.+>>,,>>4>$;;;",
"5-++%%%-,8riitpspp5=+>wuuyyawwya5,0pp7>555555555r5X+>;;>>>,>..=5",
"pr=%,rtpiiiitiittpp,+5ppy88888wypp0rp0=->>>=,5555>X%==;->>=% %rp",
",pr==9ppittetttiitpp,0s7008q8888rp05u5+*=%%=*-,,>+oo++%-%%+X.0p,",
",5p,=4tteeeerrrtttpi55tw80q88888trp5,&::-,>>:,,-.=,===%&%X+==59,",
",,9r=>0rt0000r0000r0;#8t88088q8q0r8yw:*#%&****:;X>w788885%4p0=>,",
",,4r>-00rr0000000005*.1888833838078qt:&##%*####&=57887880>4p5=,,",
",,,5==0rer0000005075#+#883388666788q0%o#&#*&&##o%88888700>5r,+,,",
">,,,%%50000000055,,--7-33333363638805%+o++##oo  %:,:,,>,>>5p,+,,",
",>,,+%4970705,,,>-,,ps7-555723360590rr0,,,,--#  +#%&*%#%-*50-%>,",
",>,>++-,,2,,>-+ >tpsssp-,,,2325255rtttttprrpp0OO;288082;-**%++>,",
"%%>%+O%---::,7:.0pprrip>+597w7;=500trrttrrrrp0#-0wq8waytttw07>%=",
"%-%++OO-:,,,,5,#0rrr00t>+5r98,X,000trt0trrrrr7#-511<<156808qrr=%",
"ipi09+-41<<:>,=%9rr7,7r>>pdppp%4000trt0trrtrr,+>2<::<<1<<12<282w",
"0risd,%---::,;&%9rr750i>9rtpdd>>000ttttrrtrtr%O-211<:::1:<:2,5,0",
"700rp>%----;:;+&7r07577>rrrtpp>%0000rr0ttrrr5+.-11<<2<:<<,<,2<:8",
"7777p>+-----;&+%9r775555t4rttp9%500000000r00,.+-<11:<:::<::::*28",
"78800&##*&--&+.+%>>>>5-0t000rrr%,055005505,5% .%&-;--;=;-;;-&;86",
"70308&#;#&##*-:5,>-++++tt0007sr%,5555--=++%5-+.+&&%&&===**#%:q86",
"83803-0u08078ytyrrrt,%%0r000rr7+>,,,>,55%.%5rr7977,,,,>>58+*3qq3",
"8883810800wwq888r00pt>=0000079+.+==-0r0rr%-->>7750wrruirpt#,q8q8",
"888003w8883838300088w,%0000r5->544rpr759r,-->,,55555550908%68883",
"388080t8wwq838q875888:=500005%%,49775,,,50%->,,55,55555555%2q33q",
"888w3000wwqq83837w7ww>=50000,+%-,55,,5,,,>%->,,,555,55550,%1q8q3",
"3321127w8w88888877707>%-,0,=+%%%=->>,,>,=+.=>,,,,,555,55,-o-:232",
"00005,,577777777,::**#*:*+*,-%#+O+#%+++%OO7r,>-->5--%%-%OOO-999r",
"fffhgffddp5*55,,,,::::,,7%,777777rrrr5-. 0ffssr5-O.#,4rrt4O-pgff",
"fffgghhhhjf:-,,---*,::::,%:,5,77r775rii+,fffffff5 -7rr79tt%%9gff",
"ffffffgffhht%:*********:,-,,,,,,>555,7r%rffggffs5+5rrr494i-+9fff",
"fffffffffgft%-%****-***,,*:,,,,,,,,55,0-0dfffffd5+>7r7r45r>%9fff",
"fdfffffffffr%--********7,-:,,,,,,,,2,57->pffffgd5%>5774r95,+5fff",
"ffdffffffff0%%-%*******7,*,:-,,,,,,,,,7,-0fffffd5+-5r494995+5ddf",
"dddffffffff7#%---***:**,,*:,,,,,::,,,,5,-0sfffff7+%57r7r959+-sdf",
"t00tptt0r00-+%%%****###*----,4,-:,:::,;;&,tffffgr%+-,555454+%45r",
",--,--,550559544**######-++%%%--*o%&&1,,%,0ffffp5+o+%%%*+%%++%-4",
"ptps-#,755055r0r7#*:7777r05545r-*,77-7up5,0ddt05%%55%-,70%.+rprp",
"fffgr%,-,-,,---,7-7,77rr5r5545r5<2ww,7rtt,5005>*-5,5r75-5, +pfff",
"dppfp-------,-->5-577775555555,>*<3822rrp,>,,-*05-**%%%*-,+-rddp",
"pdpsp,------->---%577777555555,,*<88<20rsp0rr>-5-%%%-%%*-%+-pppd",
"pdddd-----==----5%,555050555555,*<38<,0rtppppr--*%*#%%%-%%+-pdpd",
"ppppd5--==----%-5%,555505555555-*<38117000r00r-,*%%%%%%---+-rppp",
"pptps,-***%%%%%->->555555559555,*:,05,4r0rrr0r=>-%%%%%%**%++7ppp",
"ptttt,-**%%%--%%=+>5>5555555555--:,0,,770000r0++,%*%**%*%*+.5ptp",
"trppr--%%%%7rptrr--,55455454445-*1,5>%,555444,>,7:----*%**+.-ttt",
",5rr,%%*-%,7r777tt-=->>>,4--,---&;,,-9rr95,,40rrrp7%%%%%%#o.+-,,",
",57555,7%%747r99rpp4,---%---5rr5%===>tdssdd,rr4,57tr,+o+%*,,,4,,",
"7rrtrrwu4%rr77495rrritir%4ppdddd1O=85554,9r,,,4,,,57t5.%77rtppt7",
"545,,7,rr>r4r7r955595rri-,rrrrrp9@48,5,>,>5>,,44,,5,7r+-*,,,5777",
",,,,,:,,>>4r47r4r4r4r4r5--555r5r,$>,,,55,,,>,,,,,,,,5r+%%:,,,,-,",
";:;;::<1--57799799,>,,,,%%,0990r,%-,,5,,,,4=,,,4,,,,,0X%-::::*::",
";;;;::;<-%5r7r44>->>>,,>>>=,9959,%->,,,54,,-=-,,,,>,,>.+*%::::::",
"**::::<&%->775,>0isfffgggfr=,--,>@%--,4,,--%%==-,,>-=++%##*-::%%",
"*#&*;;&$++->,--9ppprpitipdg9++%,etie5%---550rrp9>=-50rt0,#%%#%%%",
"wq226waqt9--%%>90000000rrrfp++4dfgggh0%,0ppppsdp,+=450550,:,%%2t",
"38wwwwwaist>.%5r0r0rr0rrrrpg,,pghgggjs%,ppppppdp,++,,,5,,,,2%-w7",
"838qqq6q00ts>>rr000000000rrf95dhhhhghf--tptpppsr,+,4,55,,5,2:&78",
"3q336666665r4,r900999090000prrfhhhhhhh4-rppppppr>+,45,,5,,22:&78"
};
