/* XPM */
static char *est[] = {
/* columns rows colors chars-per-pixel */
"64 64 86 1 ",
"  c #362F28",
". c #3D352C",
"X c #3F382F",
"o c #40372E",
"O c #41382F",
"+ c #403730",
"@ c #453B32",
"# c #493E35",
"$ c #4A3F38",
"% c #4B4136",
"& c #4E4339",
"* c #514337",
"= c #51463B",
"- c #54493D",
"; c #5A4C3E",
": c #5C513F",
"> c #604D3F",
", c #564C41",
"< c #5A4E42",
"1 c #5D5144",
"2 c #5F5348",
"3 c #634E40",
"4 c #625445",
"5 c #685746",
"6 c #655946",
"7 c #6B5946",
"8 c #635649",
"9 c #68574A",
"0 c #66594A",
"q c #6B5C4C",
"w c #725F4D",
"e c #6C5F51",
"r c #725F50",
"t c #6E604E",
"y c #73624E",
"u c #79654F",
"i c #6E6152",
"p c #746453",
"a c #796653",
"s c #766956",
"d c #7C6A55",
"f c #756758",
"g c #796758",
"h c #766959",
"j c #7C6C5A",
"k c #7F705E",
"l c #7F6F60",
"z c #7F7060",
"x c #816C56",
"c c #826E5B",
"v c #896F5A",
"b c #84715D",
"n c #8A745D",
"m c #8E785F",
"M c #90795F",
"N c #857461",
"B c #8A7662",
"V c #857866",
"C c #8C7964",
"Z c #887768",
"A c #8D7B69",
"S c #917761",
"D c #937C64",
"F c #997E65",
"G c #927D6A",
"H c #997F6C",
"J c #978167",
"K c #9B8166",
"L c #95816B",
"P c #9B836B",
"I c #9E886F",
"U c #968371",
"Y c #9B8571",
"T c #9C8971",
"R c #A2856C",
"E c #A5896E",
"W c #A28770",
"Q c #A38B72",
"! c #AE8F71",
"~ c #AB9479",
"^ c #B0967D",
"/ c #B0987E",
"( c #B79B80",
") c #B8A088",
"_ c #C0A689",
"` c #C7AD93",
/* pixels */
"nsrs,=kVGGHGYIIDLLCL6@ifzkfflffkli,1kzi5xgdjjgsggddd5=sjxvBSBBSB",
"sssr<%kksqqsjLIIILLV,X2ifffzjfzzzi-1ff<-ugddgssqq7qs5$<7ersgxbBn",
"ggse<XfLBjee8ejjjfji@@0ffzzfffffi2&,1<@&7wgggsguuqqs=o<qre58erse",
"1<-$=%=000222,-,,<<&%@%2eit2,,,&$@.X..@o $-<>55<<5<-$.&=<1251<5<",
"oO&2e=.X@.@@@@X.oO.O$%$$X%$@..@@@&--8esee$+$.o..X+@$$$+oO..O@Ooo",
",<<1<2211,%O@&==-5qqssgji2&o1njjjNALLULGTb&,3eerserfsjjeq7-$$%,-",
"VNjkzAVT~Tj@-50qudxnnBBnkj=0~UAAABAGGVknxA<<jjjcxjjjjbAGNnCs@CYC",
"GGBCVCCCLTD$=qgxxdgddxdnxd&iLNNCAACCCNnkjB<<jjbbBBBvbvjBQACi%DGD",
"AAAAABCACVk&@:6uuudjjddxdu$0LCCCABGGVNNjjk,%jjvABBBBBBBBGCx0%xDG",
"HGGBBGAACGf%%ututudnxdxxds@2ACCCGIHNzfff0,%%cbxvvvvBvGSBBjd<@fCH",
"vAAGNBGAAk1@Oudguddddu775;X&0fkklllllffe,=X%jSBBGAGAYjrssq;%%,10",
"<80jf0Nji1=-%%577651=%O%-qq&&&%%28,,,&%@XXXX=8eerer8=@8r5*O@X@,,",
"&$@&==<5<$-5=o@@@@%@X .O$=%%%%%.ef&@1,&&%&%%@o+@$$$$$$$$$3<3<&@@",
"$=1<=$$=-;;-::,--&.@:tudddxdss:2%%qfjjxNdkBGDjee&1ANAHj,jvgrddq&",
"@5t77<=<xmBguqqqs0.=dILJnnndddxd,&NdjjNxjkNbBNjb<1bZZAA=xxxxggdq",
"=-5577=5grsjxjwq6t%:xsudndddusut&2NjjxxljxjbNjfs,efjvvj@wcxwxxgr",
";;w777$7gguusxvguu*:dddnddu0062:%-fjnxjdjjjjjfjs@rZjxAe@<551wxcr",
";;uwx7*wwguggggggq*;udsssttuutt2%&1tfjjjjlxerse8+<sfjN1$<3355wxg",
"%*;5w<o3qqqq78<;-*@;wssqsutt61:=@,ffi810e8q5<<-&=&=<<;O@<51577xw",
"&%@@+==&$=5<=8<$$ooo%-<;<:==%%.%%@,<,-@@&@@$o+@&e&.@=qq@@%%%$$$$",
"sp0<=&=&$&-&1=&$%%%%OOO...@...%%=%O%o@$@$&=&30eq851-=11$O%0<$55q",
"LCLPDBNBCGN,+=NLPJKIs%q02=%%-t6tsssdgswqs<@sBSGDNnxdsq156-==wDLL",
"nnVnCCGGLIIq$jAxkknfs1tspi%%dPnknjddjjjxBx=jww7wqwwuuuusdn%%snnn",
"VVnCCCNnnNN0$NlNfkksi15its=%ksdkjjxjxxdge8<gsuusguugsgdddt@=nVnN",
"nnVnBCCCCCC5,BNZNnkkp22pph,&udddjjdduuqqs8-uwssudsutuuttq1%:dnnV",
"VnJnNxsqsqt-2HNNVVzNkitppk1%sdddxgggddgdj8$qwwusutttttttut=%sLJn",
"nVkkeq80qqi,$sjNVVVVzk0tsi%X::yysusuqu011&@qugddstut61662:O%tssk",
"%=<<118885,@@=,3itt0<5%;1=XX....@$$@@%@@@%@@;0eq2--%%%OO...OX@.%",
"%@XX$$@@X....ooo.Xoooooo@@%%O%%%@%&@,&&,1151-===-&=--16tsjnft2-=",
"LJ0,$$@%&==3357wuqq=@*uuusyyuxmxxxD6&&jBkkkknkkCJJ6@-VDCCCLULLLL",
"UUL,X<fdgBBnnvxxdgngogFFJJnmmnmMnnMM&=fjfkfkfkzVVCi@1njjknzzzLLU",
"zLLe ikjxxxggrrgswww%xMMnJnxxxvnnnDd@=fzVzzzznnkkki@0knxjkzVUZUZ",
"AAAj@guugxgxddsurww5$vxxxuxuxxxnmMx>;*sxZlNZzNNzzz0@1jsgggrfjZAA",
"ZNZq$gxdugrsgduugwq5OxMnmmmvvxxxmu>7#*8eeeffffffzf<X5jjjxjjjllZZ",
"2<-%O:sdgguuuuyuwww:o;uguxxxxxdnw;>>@$1feee8002<1-1,$ujxbljfffee",
"XXo$O$@@=*%$@$%=;37%oO@***==;;;3>>;@@@X&&,&,,,,,%%if@=$$,==&@+$$",
"<8qsdxdu$oO$%%;%@oo$$=$+OOOO@$&&$XX$$$%=381<$X$@=,;:505-*#$o.oo=",
"LLKFKKJRxO$dkss2$5sqqssw:;%%@+$==8rxBBFIAbZGsq%;ssdddddDMgxms+1B",
"DnnnnnnnC--d222:,xgsqrsidt:6q8&0xBABBBBxbbblss+1wq7q7qqquuusD;qE",
"nMnnnnnnM71q22t%8xgssstit06tse,fNvvBvBNBbbbxx8o7uwutwqqwwwq0u<:n",
"xxnnnnnnnu=5112.exjrrrrriq0<-,%iljBvBBvvNBbbj0X1squwutwuuuxvu--u",
"xuddxxvnnw%501=.jbjjjrrli0<--<$eBGjfjBBBAbbbz5@<7uusuuuuduxg5=%u",
"65107uu75*@*--%%eblbblbb0---<=X<lAbNHBNBZlAbk<%:wquuqqq7511<%%@-",
"@@@@@@%-=$$$@O%1$&,18ee2&=&-=%%X@,<$=,<5,881*$*@%***%@O@O%%@.%%%",
"jjsjjq-1==8<===*==$$++$$%-&@+$,=&=;11-$$+++$=<::=;==%%;<&&&=0ssj",
"JLLLDQi.<HIHHFFSSSmSBHQ!q&&0rjjjBBCCCLs=qH!RFFvnxxvxg;Cns&0ITLJC",
"VnNnjnj.s(WWRRRRRRRRRRHEI@2BNNAjjfdfjd-%n!RRRRDKKnxxx1uuq=0nkkdN",
"nnkCnt8@<jxSDFHFRHFFSDSDn&sNjljbjNjkNs-*xFHFFDnnxxxxd-5wg::nkdnC",
"NnCn001%=sgeqgBHIJMDDDDBs$jxllbljNjlj5==wxxxgdduuudux%;dd;-Cjdnk",
"sst:11-@%BFSvjgnnLKIKDds5$BCbbblllbxq<$&5xxxxxxduxxxu=-tq*%snstt",
"-=%&%%%&$8jxvngwttuugq5;%@0jssfei0w5=$%=,<8qqusqtttt-O@%*@@%==%&",
"@@@..%=%@.@%$$%$@%@%@@O....X@$@$@$@@$*&@++@@@@@+..%O$%-1<<-&%..%",
"=2tt6660q%O%=%$@--:211200qeq&$=35qre2eeAxjjr1&&8utuxvBnDDDDCVd=&",
"1ndnxdunns%7n5%-tnTTTJPPQYGG8$8AGGHLNxGYYYYAj&<BnnnnBSDDJJJCnn<%",
"67677t7tud%:J6O1dkndkLJLGBBNq<NHAAAAlCAAAAAAn&$gjnnCDnDMCDJJVn1%",
"6t77tuuutu:%duO-skddsskkNBNB8$exxBCBNZHAAHHAg%;jjnCnnDnCDnnnnk=%",
"7777tyyyu7%=dy%*tspsskkkjjjj<&jAACANnNNAGGYBf$<xSjxBNnBnnnnNNf%=",
"7yy7ytttuu==ty:*tsttttsse5es,,NBBABNjnNCACCBs=<sBNjBBCnnBCCNni%=",
":::::;;:16%=yu:%&:611:608522&&fAGGGAAAACANnq-$*58q15wq0q0601:%.%",
"@O. .%@@.OO%::%O@%%%====$++@$@@,<28311<1,-&$@.O%=@--=@. ......%%",
"ksst=@%:--%@*---%=% @@@@&&&=,$@@&&X@@&%... oo+@&,$q58%1Lnsskkknk",
"JJJJ2=~))`~JbdddsnLJ&<2NNNNZAAUNfZ<<lAN&=5qwggsrqqeq&@DTLCCLPPJL",
"Jkss%6~TTQJJJbJbnCnJ1&2NlNAZZZAAll1<jfs$xQRQEDnxjjgx5-JknnnnndsV",
"Vntt=<LPKKJJbbJJCCCV1&ejlflllllllf8<jjs;BBxxdgdjgjsj6:VknVVCnnxk"
};
