/* XPM */
static char *wall[] = {
/* columns rows colors chars-per-pixel */
"64 64 112 2 ",
"   c #B65029",
".  c #BC542C",
"X  c #AF5531",
"o  c #A75739",
"O  c #A7583A",
"+  c #AA593B",
"@  c #B35633",
"#  c #B55834",
"$  c #BF5931",
"%  c #B75B38",
"&  c #B95C39",
"*  c #BF623F",
"=  c #C0562D",
"-  c #C2582E",
";  c #C45D35",
":  c #C85F36",
">  c #C65F38",
",  c #C96037",
"<  c #C66039",
"1  c #C96139",
"2  c #A35C41",
"3  c #AE5E40",
"4  c #9F6853",
"5  c #A66147",
"6  c #AA6247",
"7  c #A5664E",
"8  c #AB6449",
"9  c #AF684D",
"0  c #B76546",
"q  c #BB6443",
"w  c #B0674B",
"e  c #B2694E",
"r  c #BD6949",
"t  c #A06752",
"y  c #A36F5C",
"u  c #B36B50",
"i  c #A5715E",
"p  c #A9735F",
"a  c #BB7257",
"s  c #B3725A",
"d  c #BE775C",
"f  c #B8785F",
"g  c #A57563",
"h  c #AA7764",
"j  c #A67867",
"k  c #A97967",
"l  c #A37A6B",
"z  c #AB7B69",
"x  c #B47B66",
"c  c #BC7B62",
"v  c #B17F6C",
"b  c #C26642",
"n  c #C56945",
"m  c #C96B47",
"M  c #CC6E4A",
"N  c #CE714D",
"B  c #D0724D",
"V  c #C57455",
"C  c #CF7350",
"Z  c #C97758",
"A  c #C1795E",
"S  c #CC795A",
"D  c #D27551",
"F  c #D17E5E",
"G  c #C57D62",
"H  c #C87F63",
"J  c #B4816D",
"K  c #A58174",
"L  c #A98477",
"P  c #A6857A",
"I  c #AB8679",
"U  c #A7887E",
"Y  c #AE897C",
"T  c #B38574",
"R  c #B88775",
"E  c #B48877",
"W  c #BA8977",
"Q  c #B38C7E",
"!  c #BD8C7A",
"~  c #CB8266",
"^  c #CE866A",
"/  c #D38161",
"(  c #D1876A",
")  c #D1896D",
"_  c #CE8C73",
"`  c #C18E7C",
"'  c #D48C71",
"]  c #D88D71",
"[  c #C3917E",
"{  c #C9937F",
"}  c #AC8D82",
"|  c #B48E80",
" . c #AD9085",
".. c #AF968D",
"X. c #B69183",
"o. c #B99385",
"O. c #B4968C",
"+. c #BB9689",
"@. c #B5988E",
"#. c #BC998D",
"$. c #B69B92",
"%. c #BD9E92",
"&. c #C59482",
"*. c #C99684",
"=. c #C59887",
"-. c #CC9986",
";. c #C29B8D",
":. c #CD9C8A",
">. c #D09A86",
",. c #D29D89",
"<. c #C09E92",
"1. c #C0A095",
/* pixels */
":.:.-.>.,.,.>.,.-.! $.-.-.-.>.>.>.>.*.{ Q <.,.,.-.>.,.,.:.-.` O.:.*.*.>.>.>.>.*.*.W %.,.>.,.:.,.>.,.>.*.| %.-.-.>.-.-.>.-.*.` X.",
"/ < < < > > > ; ; % | M ; : > ; ; : ; ; w *.1 ; > > ; : > ; ; z ^ ; ; > ; > 1 ; ; % X.M ; > > ; : > > - 8 &.1 > : > > > : ; ; h ",
"Z . . . . . . . . @ Q n . . . . . . . . w ` $ . . . . . . . . j G . . . . . = . . @ Q n . . . . . . . . 8 ! ; . . . . . . . . i ",
"Z . . . . . - . = @ Q n = . . . = . = . 8 ` $ . . . . = = . . k G . = . . . = = . $ Q n . . . . . = . = 8 ! $ = . . . . . . . y ",
"a @ # @ # @ # @ # + I r @ @ @ @ @ @ % @ 7 Q # @ @ @ @ @ @ @ @ z c @ @ @ @ @ @ @ @ + I w @ @ @ @ @ $ @ @ 7 W % @ @ @ @ @ # # @ g ",
"#.| Q Y P Y | X.X.X.1.+.X.| Y P Q Q Q | X.%.X.| Q I I Q | o.| %.<.| | Q I } | | | | %.+.| Q L P } | | | +.1.o.| | I U Q X.| | +.",
"M M M * s =.D C D D B D D N n T _ B M M N M M M n w o.F D D D D D D N M s &.B M M M M M M m r T _ D D D D D D D M r o.F M M M N ",
". . . . 8 [ ; . . . . . . . . z G = . . . . . . . @ Q M . . . . . . . . w ! ; = . . = . . =   z H . . . . . . . . # Q n = . . . ",
". . . . 8 [ ; . . . . . $ . . j A = . . . . . $ $ # Q m . . . . . . . . 8 ! - . . . . . . .   z ^ . .   . . . . . @ Q * .   . . ",
". . . . 6 ! % . .   . . .     g A . . . . . . . . X Y n     . . . .   . 6 T . . . . . . . . . g G .   . . $ . . . X Y < . . . . ",
"z z z z L @.z z k g g j k j k } Q k k k i g z z j j $.E k z j g g k z g L O.z z z g g j z z z } | z z z g g k k g j $.L k z j g ",
"*.^ ( ( ( ( ( ( ^ c O._ ^ ^ ^ ( ( ( ^ H x %.^ ^ ( ( ( ( ^ ^ G Q *.^ ^ ^ ^ ( ( ^ ~ c $._ ' ( ( ( ( ^ ( ~ J #.^ / ^ ^ ^ ^ ^ ~ A I ",
"F . $ . . = . = . @ Q n = - = . . - . . w [ ; . % - . - . . . k H = = = . = = . . @ ! n . . = . ; . = = 6 [ ; = = . - - - . . h ",
"C . . . . . = . . @ Q n . . . . . = . . 8 ! - . . = . . - . . k G . . . . . = . . @ Y n . . . . . . . . 6 ` % = . . . . . . . i ",
"V . . . . . = . = @ Q n . . . . = = = . w W ; . . . . . . . . z G . = . . . . = = @ Q n . . . . . = . . 6 ` % . . . . . . . . y ",
"x 8 8 8 6 6 8 8 8 8 } s 6 8 8 6 8 8 6 6 i Q 8 8 8 6 6 6 8 8 6 K J 6 6 8 6 8 8 8 8 7 } s 8 8 6 6 6 w 8 6 p Q w 8 5 8 6 8 8 8 8 j ",
"=.&.` W Q #.=.-.&.-.:.:.-.&.!  .#.[ [ [ -.-.*.[ ! T ..=.&.-.-.:.:.:.&.` Q @.&.*.&.*.:.&.&.` T ..+.*.*.*.:.:.:.-.&.Q ..&.&.&.&.*.",
"; ; : % 8 [ 1 , < < 1 1 < < ; z ~ , ; ; ; ; < ; ; # X.N < < < 1 > : > ; e ` 1 ; ; ; ; ; ; ; . z ( : < < 1 < 1 ; ; % Q M ; ; ; ; ",
". . . . 8 [ ; . . . . . .   . z G = . . . . . . . @ | m .   . . $ .   . 8 ` ; . . . . . . .   z ~ . . . . . . . . # Q n . . . . ",
". . . . 6 [ ; . . . . $ . . . j A = . . . . . . . @ Q M . . . . . $ $ . 3 W - . . . = . . = . j ~ . . . . - . . .   Y n = . . . ",
"# @ @ # 7 ! # @ @ @ # # # X X j f # @ # # # # @ # + Y r @ @ @ # @ @ @ @ 7 T @ @ @ @ @ @ @ @ @ j c @ @ @ @ @ @ @ @ + I r @ # % @ ",
"| | | | O.%.X.| Q I U Y Q | Q #.#.Q Q Q K } X.Q Q X.1.o.Q Q Y P } Q Q Q +.%.| | Q I P | | | | #.%.| | Q P Y Q Q Q Q %.o.Q Q Y K ",
"( N C N N N N N M r o.S N N N N N B M n s =.N N N N N B B N n L _ M M B M M B M M r +.F N N N N B B N m s &.C B N N M B M M n z ",
"S . . . . . . . . # Q n . . . . . = . . w ! ; . . . . . . . . k H . . . . . = . . @ | n . . .   . . . . 8 ! % = . . . . . . . h ",
"S . . . . . = . $ @ Q n . . . . . . . . 8 ` % . . . . . . . . z H . . . . . $ . . # Q < . . . . . = . . 8 ` % -   . . . . = . i ",
"V   .   .   . . . @ T r . . .   . . . . 6 W = . . . . . . . . k A . . . . . . . . # I r . . . . . = . . 8 W = .   . . . . . . y ",
"Q k z z g g z z z z @.L z z j g k k k k L @.z k j g i j z z z  .| k z k g g k k k z O.T j k g g g z z z L @.z z k g g k z z j } ",
"^ ^ ~ G T =.' ( ' ' ] ' ] ( A Q { ( ^ ( ( ( ( ~ G c #._ ' ( ' ] ' ' ' H v ;.( ^ ^ ^ ^ ^ ^ ~ d | -.( ' ( ] ' ' ' ^ c @._ ^ ^ ^ ( ",
". . = . 6 [ ; . . - ; = . . . k ~ = . . = = . = . # X.m = . . - . . . . w ` ; = . . = . . . . k ~ = = . = = = . . # | n = . . = ",
". . . . 6 [ ; . . . . . $ . . k A = . . . . . = . @ Q M . . . . . . . . 8 ! - . . . . . . . . z ^ . . . . . . $ . @ Q n = . . . ",
". . . = 6 ` ; . . . . . . .   k A =   . . . . = = @ Q n . . . . - . . . 3 W = . . . = . = = . g ~ . . . . = . . .   I < . . . . ",
"8 8 6 8 i X.8 8 8 6 6 8 6 6 6 K J 6 6 w 6 6 6 6 8 7 } s 6 8 6 6 8 8 8 7 y | 8 8 8 6 6 6 8 6 8 K J 8 6 6 6 6 8 6 7 7 } s 6 8 6 5 ",
";.&.&.&.*.:.&.&.&.Y ..&.` &.&.&.*.&.&.! I %.&.&.&.&.:.*.&.&.! } +.&.&.` &.:.&.&.&.T O.;.&.*.&.:.*.&.&.` Y O.&.&.&.&.*.*.&.` ! } ",
"F ; > > > > : > : @ | M ; > > > > > ; - u &.1 ; < : ; > > ; ; z H ; > > > ; : ; ; & X.M ; ; > ; : > > ; w [ 1 ; : ; > > > ; $ h ",
"Z . . . . . . . = @ | n . . . . . . . . 8 ` $ . . . . . . . . j H . - . . . = . . @ Y n . . . . . . . . 8 ` ; . . . . . . . . y ",
"Z . . . . . $ $ = @ Y n = . . $ = . = = 8 ! $ = . $ . . = . . z H . = . . . . . = @ W n . . . . . = . = 6 ` % = . . . . $ = . y ",
"a @ @ @ @ @ $ @ @ + Y r @ @ @ @ @ @ @ @ 8 Y @ @ @ @ @ @ @ @ @ j c @ @ @ @ @ @ @ @ + I w @ @ @ @ @ $ @ @ 8 Q # @ X @ @ @ @ @ @ g ",
"+.| | | P I | | X.X.<.+.| | I I | | | | o.<.o.| Q I P | | | X.<.<.| | | I } Q X.| | %.+.| Q I P } | | | +.1.o.| | I Y Q | | | +.",
"M m M n s ;.D B D B D D B C n T ) B M M M M M m n r +.H D D D D D D C m s &.B B M M M M M M r v _ B D C D D D D M r o.F M M M N ",
"  . . . 8 &.- . . = . . . . . k G = . . . . . . . @ Q M . . . . . . . . w ` - . . . = . . . . z ^ . . . . . . . . # Q n = . . . ",
". . . . 8 &.; . . . . $ $   . j G . . . . . . . . @ Q M . .   . . $ . . 8 ! $ .   . $ . . .   z ^ . . . . . . . . @ Q n .   . . ",
". . . . 2 ` ;   . . . . .     j d . . . . . . . = + Y n   . . . . . .   3 T $ . . .   . . $   j G .   . . $ . .   X I < . . .   ",
"h k k z P @.z k k g g k k k k  .| h k k g g j k k z O.Y h z g g g k g h I O.z k k j g j z k k } | j j z g g k k z j $.L k k j g ",
"*.( ( ( ( ' ( ^ ^ c @.) H ( ^ ( ^ ( ^ G x <.) ^ ( ( ( ) ^ ^ G | *.^ ^ ^ ^ ( ( ^ H c @._ ) ^ ) ( ' ^ ^ ^ x #.^ ^ ^ ^ ^ ^ ^ ^ A I ",
"S . . $ $ . = . = @ Y m . $ . $ = = . . e ` ; . $ . . - $ = . z H = = = . = = . = $ X.n = = $ . - $ . = 8 ` ; = = . = - = . . h ",
"Z . . . . . - . = @ Y n = . . . . = . . 8 &.$ . . . . . = . . k G . $   . . $ . $ @ Y n . . $   . . . . 8 ! ; . . . . . . . . i ",
"Z . . . . . = . = @ Y n . . . . . = = = 8 W $ . . - . - . . . k G . = . . $ . . . @ | * . . . $ . = . . 8 ! . = . . . . . . . y ",
"c 8 8 8 8 3 8 8 8 t } s 8 3 8 8 3 8 8 8 y | 8 8 8 8 2 8 8 3 7 l x 8 8 8 3 8 8 8 3 t } s 3 8 8 3 3 w 8 6 i | w 6 7 8 8 8 8 8 8 j ",
";.&.` ! I %.&.-.&.:.,.:.=.&.!  .;.&.&.&.*.:.&.&.W Y @.;.:.&.:.:.:.:.&.&.Q O.&.*.&.&.:.&.&.` Q  .#.*.*.&.:.:.:.*.&.Q ..&.&.&.&.*.",
"; ; ; . w *.1 1 > 1 1 < 1 ; ; x H ; - ; ; ; > - - @ X.B > > > : > > > - w &.: ; ; ; ; ; ; ; . z ^ : < 1 1 1 < > : % Q M ; ; ; ; ",
". . . . 8 ` % . . . . . . . . j G . . . = . . . . @ W m   . . . . . . . 8 ` ; . . . = . . . . z ^ . . . . . $ . . @ Q n . . . . ",
". . . . 6 ` ; . . . . . $ .   z G . . . . . . = . @ | m . . . . . . . . 8 W - . . . . . . =   g G . . . . . . . .   Y n = . . . ",
"@ @ @ @ 7 Q & @ @ @ # # @ X X j c X $ X X @ @ @ @ + } r @ @ @ @ @ @ @ X 7 T @ @ @ @ @ @ @ @ @ j c @ @ @ @ @ @ @ @ + I r @ @ % @ ",
"| | | | o.<.o.| Q I } | | Q Y %.@.| | | v } | | | | %.o.| | I } | | | | +.<.| | Q I P | | | | %.<.| | Q L } Q | Q Q %.o.Q | Y K ",
"( N D N N B N N M r X.S M N M N M B C n x ;.C C B C M B C M n v ) M M M M M B M M r +.F N N N N D M C m s &.N M N M M B M M n z ",
"S . . . . . . . . @ Q m . . . . . . . . 3 ` - . . $ . . . . . h G . $ . . . = . . @ | n . . . . . . . . 8 ! ; . . . . . . . . h ",
"A . . . . . = . . @ Q n . . . . . - . . 3 X.$ . . . . . . . $ k G $ $ . . . $ . . # Q < . . . . . - . . 8 ` % ; . . . . $ . . i ",
"V . . . . . . . . @ Y r . .   . . . . . 3 R $ $ . . . $ . . . k d . . .   . . . . # Y r . .   . . . . . 6 W . .   . . . . . . y ",
"Y h k g g g z k z j @.T z z g g k k k k I @.k z j y k k k k k  .| z z k g g k k z z ..T j z g g g z z z L #.z z j g g g z z j } ",
"^ ( ^ G x %.' ' ' ' ' ' ' ^ G | *.( ( H ( ( ) H G c @._ ' ) ) ' ' ' ' H v ;.( ^ ^ ^ ( ^ ^ ~ d Q -.( ' ( ] ' ' ' ^ c #._ ^ ^ ^ ( ",
". . = . 8 ` ; = . ; = $ . . . z G = = . = = . = . @ | m . . - - $ . . . w ` ; = . . = . . . . z ^ = = . = = $ . . # Q n = . . = ",
". . . . 8 [ ; . . . . . . . . z A = . . . . . . $ X | m . . . . . $ . . 8 ! - . . . . . . $   z ~ . . . . $ . . .   Q n = . . . ",
"= . . = 6 ` ; . . . $ . . . . g A = . . . . . . = X | m . . . . . . . . 3 R - . . . . . = =   j ~ . . . . . $ . . @ Y n . . . . ",
"+ + + + 4 Q + O + O + + O O O j x + + + + + + + + 2 } e + + + + + + + O t I 3 + + + + + + + O l c + + + + + O O O O P w + + + O "
};
