/* XPM */
static char *ouest[] = {
/* columns rows colors chars-per-pixel */
"64 64 173 2 ",
"   c #2C0B05",
".  c #270E0A",
"X  c #2D0E0B",
"o  c #350C07",
"O  c #3A0F06",
"+  c #320D0A",
"@  c #3C0E0B",
"#  c #2D1205",
"$  c #26140D",
"%  c #2C130D",
"&  c #2D1B0F",
"*  c #361107",
"=  c #391407",
"-  c #34130D",
";  c #3B140C",
":  c #35190E",
">  c #3B1A0E",
",  c #2C0E12",
"<  c #310F11",
"1  c #2D1411",
"2  c #2E1913",
"3  c #2E161C",
"4  c #2F1A1A",
"5  c #341512",
"6  c #3B1612",
"7  c #341A14",
"8  c #3B1B13",
"9  c #341418",
"0  c #3A161A",
"q  c #341D19",
"w  c #3B1D1A",
"e  c #39210F",
"r  c #2C2215",
"t  c #352215",
"y  c #3C2215",
"u  c #35231B",
"i  c #3C231B",
"p  c #372B19",
"a  c #3C291D",
"s  c #3D2621",
"d  c #3E2B21",
"f  c #3B2F28",
"g  c #3F3023",
"h  c #480F07",
"j  c #4B0E0D",
"k  c #510E05",
"l  c #431207",
"z  c #4D1305",
"x  c #451805",
"c  c #4E1A07",
"v  c #44150C",
"b  c #4B160C",
"n  c #441B0D",
"m  c #4B1B0D",
"M  c #561406",
"N  c #5A1506",
"B  c #541905",
"V  c #5A1A07",
"C  c #52160D",
"Z  c #5A160A",
"A  c #531B0D",
"S  c #5B1C0C",
"D  c #431611",
"F  c #4B1611",
"G  c #431C13",
"H  c #4C1C12",
"J  c #431D19",
"K  c #4B1E1A",
"L  c #531D12",
"P  c #5A1E13",
"I  c #531E1B",
"U  c #581E18",
"Y  c #661907",
"T  c #621D0C",
"R  c #621E10",
"E  c #691C13",
"W  c #46210D",
"Q  c #4C210E",
"!  c #53220E",
"~  c #5C220F",
"^  c #442215",
"/  c #4C2215",
"(  c #432815",
")  c #4B2916",
"_  c #43241B",
"`  c #4C241A",
"'  c #44291D",
"]  c #4C2A1C",
"[  c #532314",
"{  c #5B2415",
"}  c #532916",
"|  c #5C2A15",
" . c #54251A",
".. c #5B261A",
"X. c #552A1C",
"o. c #5B2B1C",
"O. c #4C321F",
"+. c #593016",
"@. c #55321D",
"#. c #5C311C",
"$. c #65210D",
"%. c #632414",
"&. c #6A2614",
"*. c #622A16",
"=. c #6D2C16",
"-. c #62251A",
";. c #682618",
":. c #632C1B",
">. c #6B2C1C",
",. c #742E17",
"<. c #712D1C",
"1. c #633616",
"2. c #63311C",
"3. c #6B331D",
"4. c #6C3B1E",
"5. c #73351E",
"6. c #7A371D",
"7. c #70391F",
"8. c #412722",
"9. c #4C2521",
"0. c #432C23",
"q. c #4B2C22",
"w. c #442E29",
"e. c #492F2A",
"r. c #542621",
"t. c #542C22",
"y. c #5B2D22",
"u. c #532D29",
"i. c #443225",
"p. c #4B3224",
"a. c #493827",
"s. c #433228",
"d. c #4B3429",
"f. c #47382C",
"g. c #553224",
"h. c #5C3224",
"j. c #543827",
"k. c #5B3A23",
"l. c #54322A",
"z. c #5D342A",
"x. c #553A2B",
"c. c #5C3A2B",
"v. c #4A3931",
"b. c #5B3730",
"n. c #622720",
"m. c #622E21",
"M. c #633324",
"N. c #6A3523",
"B. c #633B26",
"V. c #6A3B25",
"C. c #62352A",
"Z. c #683628",
"A. c #643B2B",
"S. c #6B3C2C",
"D. c #703321",
"F. c #723E22",
"G. c #713D2B",
"H. c #653B30",
"J. c #693C30",
"K. c #713E31",
"L. c #66412E",
"P. c #6C422C",
"I. c #734324",
"U. c #74442D",
"Y. c #7A472F",
"T. c #75492C",
"R. c #794A2E",
"E. c #6C4532",
"W. c #734531",
"Q. c #754B34",
"!. c #7C4B33",
"~. c #7D5135",
"^. c #834D36",
/* pixels */
"[ y ' ^ X.J ` [ `  .` [  .X.[ o./ 8 G L  . . .L L H L ;. .w / X.` v X. . .X.X. . .y. .o...r. ...o._ 0 D 0.G { c G v c G n G c  .",
"[ G i g.y.`  . ./ [ [  .m.y.[  ./ > ; [ L [ ! { %.;. .L c 8 y t._ H } /  .X.X./ t.X._ J K G G G G _ 0.i.0.5 H S c H L H c H c L ",
"[ ^ y @.y.t.y.X.X.o.[ L .. . ...[ : n [ [ ..y.` w 7 - - ; i G 8 G  .o.I y.y.` 8 : 5 5 1 5 7 7 u q ` :.:.#._ q 8 ^ / / `  ./ [ L ",
"A 8 s > - - 6 6 ^ t.t.t.y.y.....#.8 ; H G J 5 5 5 8 [ :.>.:.[ v - 8 G k. .7 2 1 4 u u p s s.s.i.X.:.P C [ | ` w q 2 2 1 5 5 G H ",
"; y f u 7 7 5 % - - 7 7 w w J G ^ > 8 7 5 5 - G ;.P P S S V N S b 7 1 8 4 q i ` t.g.g.t.` _ s i _ ..L L D b A .. .` _ w q 4 % - ",
"w _ i a i i i _ w 4 7 G H [ [ J 7 w 8 > n } ` v c %.N S ~ A L C h ; ' i 7 q.C.o.[ [ o.V.M.k.k.k.^ ; v `  . .F b U A ..J i ` [  .",
":.:.{ { { :...{ { K D r.o. ./ 8 7 ^ / o.*.B P ` ; F S L H v ; ; [ y.S.L.] > k.P [ [ H / m.N.N.m.y.y 7 5 J ]  .L b L ..H n %.R %.",
"V T T $.S S S S T T v s 5 5 J ` { | [  .F c b [  .; 6 ; - ` k.S.U.L.U.L.t.; / M.[ ` ]  .I K H H ../ > y 5 6 t...P .. .l { P L c ",
"b b b b b H L / :.b q i H ! { A L b U F b b c ..c 8 ` z.E.W.U.U.V.U.M.y.q.8 8 o.k./ G ` / / Q n [ P  .) 7 - J o.U  .* c %.C L U ",
"H b L H H H H ....l t ] { l b H G H H c c H L L - ] A.M.y.y.y.A.S.y.y.S.g.i 8 n y.M.o. .[ [ [ [ [ [ o./ y i 5 6 D 5 8 n G L C C ",
"L A A L A ! [ m.H @ / { v v H Q c H c n n v A H : q.z. .o.y.J.C.y.k.k.G.y.a 8 ; ] t.` t.t.y.y. .} [ :./ u s.q.] ` g.p.7 + ; L L ",
"L L { %.*.o.M.m.v 6 W A G / / / c o.H F H H ..; i _ y.y.y.C.A.A.A.A.A.S.C.' i 5 8 ; - - - 6 6 8 G H X.` y X.V.!.R.U.L.M.K - o D ",
"< 5 6 D D b F  .l 7 % D H  .` ; - 6 v H G G ; 8 s s k.C.y.r.J J J J G J G i a i 8 y i i i u i i 8 8 ; 8 _ A.V.../ ` X.C.A.t.8 1 ",
"u u 7 5 - + + @ ; u q X ; ; + X , % , 1 % X 7 i s p 9.` 7 q q q q q 8 8 _ ' ' ' ' 0.q.q.q.s.p.i.d.p.i.0.0.C.t.` r.t.t.y.C.S._ p ",
"y y ^ / X.^ t t t ^ [ H G ; 8 ^ ^ ^ i u e ` { [ Q [ J 8 i i _ y i i #.3.:.:.:.[ | 2.2.2.2.#.| X.X.@.g.X.' t.X.] o.o. .C.C.l.u i ",
"W } o.| %.{ H y u  .{ S ......;.&.;.8 ^ { ..L n c H { | } } / c 8 8 o.L A [ L X.[ / [ { { { ;.:.;.| { { G ` k.m.r.w J _ 8 7 7 8 ",
"2.| A C C C A v H ;.K ..R T T Y T S 8 / %.n v c H v c H [ [ A ! 8 G o.H L / y. .D F F F b U U P L L H ..^ y ^ 9.4 1 7 > G [ } o.",
"! b b b C L c ; H P  .U S U L b b n 8 G c / ! / c b K D H [ P n t G { L [ { [ F L H F L H L P P L H [ ..H s i q 8 H [ ~ | | { ! ",
"B c H L G 6 X q 5 + - o + - - y t u y G c [ n ; n G c Q / / v : t / ;./ Q [ c H H v v c b L L U L  .t. .w f _ ..o.2.2.| [ [ | ! ",
"} G 6 + X % y p.k.z.k.A.S.U.U.Q.t.i y D / n n H [ [ [ v * o + i u H { [ { ..L { ....o.[ ....X. .I G G ; y ' > c 2.| [ L H H B A ",
"1 X X & ^ L.P.R.^.L.Y.!.R.~.T.V.X.i 8 H [ H ! [ v ; + X 1 8 w _ 7 * * v ` H G J G w 8 8 8 6 ; : - n / [ | [ G q [ | L H H H H F ",
"X w g.L.Q.E.P.U.C.C.Z.M.M.S.L.U.A.8 y n G ; - X X q 7 8 ^ ] } / ^ ^ ^ 8 - 1 5 5 8 8 y i `  .` G ^ o.[ A n b J y v [ [ / H c H 6 ",
"i ] S.A.y.M.k.k.y.m.C.m.M.A.A.S.G.^ i 5 X # - q s i ^ y.o.} H b A A A L ^ i ^ :.D.<.=.%.T Y R H 8 G G _ ] ] t.' D H / / ` [ D + ",
"y ^ M.y.t.k.y.y.k.C.y.k.M.M.M.S.W._ 2 y @.L.g.q.' - G [ ! l v v v v b b c 8 / &.T Z Z N V A b G 0.q.y.A.M.k.o.X.G 6 H v - o - 8 ",
"] ^ y.A.A.C.k.C.z.t.k.z.C.A.C.z.^ ; ] S.!.^.Q.W.g.8 + H [ H n x c G H H n 8 :.%.A S A P L v r.y.k.M.M.[ /  .[ o./ 8 ; * n / y ^ ",
"[ L G t.A.B.M.t.K 6 6 J 9.u._ 6 _ L.T.L.!.M.k.C.k.J % G / W n D ; 6 8 v 8 w b L ..{ R ;.l ; k.o.:.o.H K _ ` ` X.y.G t ) *.[ n / ",
"H H G G ` J 8 5 % - 1 5 5 5 8 ; A.K.:.V.S.o.r.m.A._ 8 5 5 7 q w i s w.0.0.s 6 + 6 G L j 6 ^ X... ./ ` q.] ] X.` G ; / | b L D G ",
"; ; 7 w n > G / X.] y s 8 J C.k.N.m.M.M.o.o.m.M.M.t._ _ ` _ 0.] 9.` ` H / H [ [ 8 : ; _ 8 ` y...r.t.t.` t.t.^ ; ;  .o.A A c ; u ",
"X.#.@.} N.M.N.>.:.[ 8 w ` E.S.B.2.y.m.y.o.k.y.o.K.C.^ H { P ~ | *.,.=.>.>.%.&.=.K t.E.J.} v G G ` ` _ _ _ > 8 ^  .L H c D 5 J t.",
"m.:.Q :.%.{ P P [ L G 8 M.E.2.o.y.k.y.y.y.C.K C.A. ._ n :.<.,.=.&.%.~ S Z C S S D 8.k.m.S.C./ 8 ; 7 7 q 7 i y H L H 6 + - s G o.",
"r.v [ o.c H A [ I [ [ ; X.A.#.o.y.y.y.y.z.X.M.S.J.J w.w A <.S h l C b b C A ~ c 8 q.C.z.z.J.S.A.8.0.' ' q.p.a 6 v - 7 ^ X.] n  .",
"H [ M.H H H / L [ L :._ / L.B.M.:.o.M.V.y.C.u.y.u.i s.i A =.b v A A b b C S E H y z.C.y.k.z.r.J n ] @.o.;.o._ J 8 q.@.{ | ` D  .",
"c o.H v n H H /  .;.{ 8 _ ` z.C.C.M.y.` K 0 q 5 ^ q.] _ c =.l c A P P P P C C K ' 7 5 8 8 G ^ } 4.N.*.{ P { G 0.M.o.A L ..J ; ` ",
" .n n n n G c H H P [ 8 G c G ^ G w 5 5 9 q _ q.t.| M.J H ;.S A L H D D ; - 8 8.a ^ ` q.y.k.4.F.N.%.%.L | *./ 8 X...U  . .w H ..",
"/ / / X. .X. .[ [  ./ ; H ) ` G 5 7 7 t s _ `  . .P ..9.- l ; 5 1 4 3 s 0.l.q./ B.7.7.P.4.3.:.{ ..m...o./ [ y.8 ^ X. . .^ 8 ..{ ",
"X. .` G 8 n H  ... .G ; K c S [ e 7 ^ a s G ; v v 6 6 > ^ G ^ y i 8.e.A.C.M.^ H 2.*.| ;.%.>.3.:.>.{ ..L / / o.[ > `  .G G  ...{ ",
"; 5 1 X % 1 1 - < 6 7 6 ; b ; ; > H | n J / H [ [  .o.#.#.1.2.:.} / ^ ` y.t._ L o.| ..L P *.*.3.:.L { [ _ / ! 3.X.^ t ' > [ I G ",
"w 5 w w w 8 5 - 8 8 ] q.` t & > [ { R c 8 c n l b c c ! ~ | A b c  .X._ ^ ' 0.K :...{ L { { { o...A [ L [ o.2.o.G 0.i.i.8 = - 7 ",
"0.] t.y.y.C.k.B.S.E.L.A.j._ ` P B N T H w > H b b v v v b l v G H H b [ } ] ] G ..o...{ { P ..;.[ o.M.o.o.o./ 8 ' 0.' a 0.0.i.i.",
"_ t.o.g.k.C.A.V.A.H.C.q.5 w v A A A Z Z J q v H c c b v n l l n H b b G  .` ' H L ;.:.*.*.r.H c H H G D ; = ; G / Q 2.o./ _ 0.i.",
"0.t.k.y.y.t.g.y.z.l.G ; } / - - v L A Z c a : > = ; c H c H c c c F v [ [ G i._ [ *.| *.o.G ; - 5 - ; 6 G ` } 1.} [ { ..M.o./ ] ",
"d._ z.C.k.y.b.z.8.- G o.*.1.] 8 + ; D L F ^ _ @ D O D H H G H H H D L 2.A ^ i.d.> o.*.{ v - 8 ^ n / X.:.2.2.2.{ H c l v c [ | ^ ",
"i.e.J z.A.z.9.7 5 [ k. .c P :.[ G 7 5 @ 8 a w.i ; +   X X X o < ; G [ H H G p.v.^ [ X.; 8 _ } 2.| o.{ [ Q Q n  ./ l @ l b F A v ",
"' v.s _ q.8 7 ^ o.o.c G G F A | o.t.^ i q.X._ i w q 7 t 8 7 5 5 - % X + + - q.v.d.J 5 i i.) | ! c c n H J ; [ / l O v v v b [ H ",
"G i.p.G 8 i ^ #.| c G c c F c F c { [ a 8.N.>.o.X...y.o.:. .p.q.` _ _ _ i s 0.p.p.l.q.d.' o.} ! H H H H 8 } o.v v v b H H [ [ L ",
"G ' X.| | / > ` L n n c H F H H c b Q _ _ ..o.:.:.:.{ A P o.i ] M.k.y.k.k.k.k.M.N.L.B.g._ Q ~ ! [ c c v H  .x c H H [  . .[ c [ ",
"_ ] ! [ A L ^ /  .G G D G F F c F H L / _ [ o.L H H / [ ../ _ t.o.[ [ | :.:.m.M.2.N.S.j.' 8 G [ [ / n n  .c H H / H H ` ` H K H ",
"a > H H G 8 y 8 ` [ L L H c b b U F c / G ` %...%.L [ [ { ` _  .} } o.X. . .{  ...r.y.@.0.0.7 ; H H H [ c H G 6 ; 5 - @ - ; @ + ",
"@.G 8 8 G ^ ( 8 6 n n G G c H I U b C G ' ^ ; G  . ...../ a i ] k.y.X.o.o.{ L ....[ ..k.' i.' > * ; H n > - + X < - - 8 8 > [ :.",
"*.>.*.*.&.&.%./ t & & $ $ X + v D H F G i.^ y * : 8 G K ^ ' a _ w y 7 8 8 8 G /  . .{ y.g.` { A ^ ; 5 5 2 7 8 8 8 ^ ( s i *.*.$.",
"S M V B A F F _ i.L.@.@.) ' 7 #   # + J ] ! 3.5.:.G i ` :.:. .H G G v 8 8 5 7 8 8 8 w ` / [ L v b n 7 r 8 > ^  .o.M.:.n ; l B T ",
"c L c H G _ g.L.R.^.U.Y.!.R.Q.L.g.y q 0./ A ~ 5.c _ / 3.&.,.6.5.*.<.5.3.3.2.3.N.M.^ y i ^ G ; : : > / } | 2.3.*.{ { >.:.v o O v ",
"5 - > ] g.L.J.C.m.r.y.y.k.C.Z.W.!.E.0._ L `  .H p J ~ >.P B T %.%.{ =.=.<.&.R T { =./ 0.q v } ^ } 2.2.:.o.| { A A L P :.o.> : 7 ",
"s q.b.H.z.X. .r.r.y.y.m.y.m.y.y.m.G.x.^ L  .G i G A 5.{ L b b b A A l M C C S L A &.{ 0.i.y.3.X./ / / H c L  .P L L P P c [ n y ",
"i.' k.t.9.K r.r. . .r.r.y.m.m.y.y.m.^ > L b _ _ L 5.*.c H c G L C C Z Z C L L L L $.{ i.i./ :./ / G c / /  .L L L I P P ;.>.2.Q ",
"i.G I u.q.t.y.y.y.y.y.m.H.C.y.r.k.o.i w ; q _ ;.F.:./ G G A c b Z S A L L L H A { &.[ q.0.H >.[ / / / ` ` H H I L U L A  .{ 2.n ",
"s 9.S.b.b.C.z.z.y.C.J.C.y.y. .X.k.r.i i ` w 6 R 3.|  .H L C C P T S A ~ ~ { ~ ~ >.{ b e.8...X.[ { o.o.o.X.o. . .L I U L ` / o.W ",
"w.K  .` u.t.t.I D z.J.C.m.z.y.y.C.` 7 _ L c @ A >.3.{ P A A :.{ P L [  .[ ..o.| A b v _ / :.{ o. .X.` _ / ` L [  .c { ..[ } | W ",
"i.q 7 7 2 1 0 0 6 J q.C.C.C.z.z.y.7 8 b l n ; F v l F ; ; 6 ; 8 J _ 8.s a ' _ _ _ G y i.y ^ n > : : - 1 1 - - & & : ; n ) ^ > y ",
"a i.g s ' 8.w q 9 5 5 6 6 5 8 8 6 7 G F ^ H ; 5 - - 5 9 w 8.0.q.8.0.s.d.p.p.x.k.j.j.g.l.d.O.a a ' X.o.X._ ] ] i a i u t y u ' ] ",
"} ' ' p.W.:. .t.k.q.9._ w w 7 q u 7 + 1 1 - & 7 7 w i 0.` H L F ` ` ] M.M.V.F.N.:.;.o.m.:.M.M.t.^ { &.N Z E D 0.O.} X._ ^ ) } 2.",
"o.> O.L.k.H H / I  .X.o.y.C.@.y u i _ ^ _ ) ) X.o.V.X.> H b G 8.' k.N.#.} X.I L L I I L I I ..y.^ / S k R h 8.' } | } Q | | | 2.",
"| > j.@.H / /  ./ H / / / [ :.M._ n 2.5.3.4.D.N.:.%.o.H ; i i.d.z.C.y.y.t.y. .X.y.X.y.y. ... .y.b.` %.{ I q.p.t...[ H  . .{ | o.",
"[ y 8 / / H  .` / [ [ [  .[ [ o.^ ; ..:.| [ H H c H L { 8 s.9.m.C.g.t.H.j.t.H.H.y.z.H.y.y.m.m.M.H.l.m.;.e.x.g.m...k.y. . .t.o.:."
};
